# xmcd CD database file
#
# Track frame offsets:
#	150
#	18517
#	39395
#	76813
#	97404
#	117099
#	145058
#	170829
#
# Disc length: 2502 seconds
#
# Revision: 0
# Processed by: cddbd v1.5.1PL0 Copyright (c) Steve Scherf et al.
# Submitted via: CDex 1.51
#
DISCID=6509c408
DTITLE=Body and Soul - Quiet Moments
DYEAR=2004
DGENRE=New Age
TTITLE0=The Soft Kiss Of Spring
TTITLE1=Summer Romance
TTITLE2=Meditation
TTITLE3=The Piper
TTITLE4=Midnight
TTITLE5=Sheebeg and Sheemore
TTITLE6=Winter Into Spring
TTITLE7=The Touch Of Your Hand
EXTD=YEAR: 2004
EXTT0=
EXTT1=
EXTT2=
EXTT3=
EXTT4=
EXTT5=
EXTT6=
EXTT7=
PLAYORDER=
